<svg width="24" height="24" viewBox="0 0 24 24" fill="none" xmlns="http://www.w3.org/2000/svg">
<path d="M8.05622 11.6401H8.06475M11.4696 11.6401H11.4781M14.8829 11.6401H14.8914M19.1496 19.2001L16.3128 17.8039C16.0978 17.698 15.9903 17.6451 15.8775 17.6078C15.7775 17.5747 15.6745 17.5508 15.57 17.5363C15.4522 17.5201 15.332 17.5201 15.0916 17.5201H6.52022C5.56439 17.5201 5.08648 17.5201 4.72141 17.337C4.40027 17.176 4.13919 16.9189 3.97557 16.6029C3.78955 16.2435 3.78955 15.773 3.78955 14.8321V8.44813C3.78955 7.50724 3.78955 7.0368 3.97557 6.67743C4.13919 6.36131 4.40027 6.1043 4.72141 5.94324C5.08648 5.76013 5.5644 5.76013 6.52022 5.76013H16.4189C17.3747 5.76013 17.8527 5.76013 18.2177 5.94324C18.5388 6.1043 18.7999 6.36131 18.9635 6.67743C19.1496 7.0368 19.1496 7.50725 19.1496 8.44813V19.2001Z" stroke="black" stroke-width="1.5" stroke-linecap="round" stroke-linejoin="round"/>
</svg>
