<svg width="25" height="24" viewBox="0 0 25 24" fill="none" xmlns="http://www.w3.org/2000/svg">
<path d="M16.5002 15C14.2902 16.333 10.7082 16.333 8.50024 15M19.5003 8.71001L14.1673 4.56201C13.6993 4.19792 13.1232 4.00024 12.5303 4.00024C11.9373 4.00024 11.3613 4.19792 10.8933 4.56201L5.55927 8.71001C5.23872 8.9593 4.97937 9.27854 4.80103 9.64336C4.62269 10.0082 4.53008 10.4089 4.53027 10.815V18.015C4.53027 18.5454 4.74099 19.0542 5.11606 19.4292C5.49113 19.8043 5.99984 20.015 6.53027 20.015H18.5303C19.0607 20.015 19.5694 19.8043 19.9445 19.4292C20.3196 19.0542 20.5303 18.5454 20.5303 18.015V10.815C20.5303 9.99201 20.1503 9.21501 19.5003 8.71001Z" stroke="black" stroke-width="1.5" stroke-linecap="round" stroke-linejoin="round"/>
</svg>
